<?xml version="1.0" encoding="UTF-8"?>
<!DOCTYPE svg PUBLIC "-//W3C//DTD SVG 1.1//EN" "http://www.w3.org/Graphics/SVG/1.1/DTD/svg11.dtd">
<svg xmlns="http://www.w3.org/2000/svg" version="1.1" width="393px" height="382px" style="shape-rendering:geometricPrecision; text-rendering:geometricPrecision; image-rendering:optimizeQuality; fill-rule:evenodd; clip-rule:evenodd" xmlns:xlink="http://www.w3.org/1999/xlink">
<g><path style="opacity:1" fill="#f8dd3b" d="M 236.5,85.5 C 238.279,87.3435 240.612,88.0102 243.5,87.5C 260.472,90.6477 273.805,99.3144 283.5,113.5C 283.427,115.027 284.094,116.027 285.5,116.5C 285.427,118.027 286.094,119.027 287.5,119.5C 289.674,122.515 291.341,125.849 292.5,129.5C 292.402,131.553 293.069,133.22 294.5,134.5C 294.5,134.833 294.5,135.167 294.5,135.5C 294.779,140.583 296.112,145.249 298.5,149.5C 298.5,150.167 298.5,150.833 298.5,151.5C 299.808,167.166 299.808,182.832 298.5,198.5C 298.5,199.5 298.5,200.5 298.5,201.5C 296.96,203.838 296.294,206.505 296.5,209.5C 296.5,210.167 296.5,210.833 296.5,211.5C 294.837,213.438 294.171,215.772 294.5,218.5C 294.5,218.833 294.5,219.167 294.5,219.5C 292.926,221.102 292.259,223.102 292.5,225.5C 290.634,233.432 287.967,241.099 284.5,248.5C 250.833,249.833 217.167,249.833 183.5,248.5C 184.852,247.476 186.185,246.476 187.5,245.5C 189.914,244.089 191.581,242.089 192.5,239.5C 204.965,224.916 214.631,208.583 221.5,190.5C 223.28,189.01 223.946,187.01 223.5,184.5C 223.782,180.426 224.448,176.426 225.5,172.5C 228.167,165.5 228.167,158.5 225.5,151.5C 225.5,150.833 225.5,150.167 225.5,149.5C 225.829,146.772 225.163,144.438 223.5,142.5C 223.5,142.167 223.5,141.833 223.5,141.5C 223.598,139.447 222.931,137.78 221.5,136.5C 212.443,119.463 198.11,111.463 178.5,112.5C 176.712,111.378 174.712,111.211 172.5,112C 168.471,112.416 164.804,113.583 161.5,115.5C 157.567,117.033 153.567,118.367 149.5,119.5C 148.5,119.5 147.5,119.5 146.5,119.5C 146.5,118.5 146.5,117.5 146.5,116.5C 149.344,116.657 151.011,115.324 151.5,112.5C 176.346,92.886 204.68,83.886 236.5,85.5 Z"/></g>
<g><path style="opacity:0.91" fill="#aa9929" d="M 236.5,85.5 C 239.067,85.7215 241.401,86.3882 243.5,87.5C 240.612,88.0102 238.279,87.3435 236.5,85.5 Z"/></g>
<g><path style="opacity:0.506" fill="#c2ad2e" d="M 178.5,112.5 C 172.782,113.222 167.115,114.222 161.5,115.5C 164.804,113.583 168.471,112.416 172.5,112C 174.712,111.211 176.712,111.378 178.5,112.5 Z"/></g>
<g><path style="opacity:0.592" fill="#7b6e1e" d="M 283.5,113.5 C 284.906,113.973 285.573,114.973 285.5,116.5C 284.094,116.027 283.427,115.027 283.5,113.5 Z"/></g>
<g><path style="opacity:0.569" fill="#81741f" d="M 285.5,116.5 C 286.906,116.973 287.573,117.973 287.5,119.5C 286.094,119.027 285.427,118.027 285.5,116.5 Z"/></g>
<g><path style="opacity:1" fill="#d9c234" d="M 151.5,112.5 C 151.011,115.324 149.344,116.657 146.5,116.5C 146.5,117.5 146.5,118.5 146.5,119.5C 147.5,119.5 148.5,119.5 149.5,119.5C 142.225,123.477 135.225,127.977 128.5,133C 127.5,133.667 126.5,133.667 125.5,133C 133.319,124.944 141.986,118.111 151.5,112.5 Z"/></g>
<g><path style="opacity:0.243" fill="#786b1c" d="M 292.5,129.5 C 293.931,130.78 294.598,132.447 294.5,134.5C 293.069,133.22 292.402,131.553 292.5,129.5 Z"/></g>
<g><path style="opacity:0.278" fill="#857820" d="M 221.5,136.5 C 222.931,137.78 223.598,139.447 223.5,141.5C 222.069,140.22 221.402,138.553 221.5,136.5 Z"/></g>
<g><path style="opacity:1" fill="#b6a42c" d="M 294.5,135.5 C 296.451,139.874 297.784,144.54 298.5,149.5C 296.112,145.249 294.779,140.583 294.5,135.5 Z"/></g>
<g><path style="opacity:0.404" fill="#7c6f1e" d="M 223.5,142.5 C 225.163,144.438 225.829,146.772 225.5,149.5C 224.388,147.401 223.721,145.067 223.5,142.5 Z"/></g>
<g><path style="opacity:1" fill="#285ba5" d="M 141.5,155.5 C 166.945,153.967 184.445,164.967 194,188.5C 199.718,217.574 188.885,237.407 161.5,248C 132.602,252.974 113.102,241.808 103,214.5C 98.8047,183.527 111.638,163.86 141.5,155.5 Z"/></g>
<g><path style="opacity:0.933" fill="#b6a42c" d="M 298.5,151.5 C 300.055,159.101 300.721,166.934 300.5,175C 300.721,183.066 300.055,190.899 298.5,198.5C 299.808,182.832 299.808,167.166 298.5,151.5 Z"/></g>
<g><path style="opacity:0.82" fill="#af9d2a" d="M 225.5,151.5 C 228.167,158.5 228.167,165.5 225.5,172.5C 226.413,165.464 226.413,158.464 225.5,151.5 Z"/></g>
<g><path style="opacity:0.922" fill="#a79728" d="M 223.5,184.5 C 223.946,187.01 223.28,189.01 221.5,190.5C 221.595,188.214 222.262,186.214 223.5,184.5 Z"/></g>
<g><path style="opacity:0.58" fill="#968724" d="M 298.5,201.5 C 298.435,204.428 297.768,207.095 296.5,209.5C 296.294,206.505 296.96,203.838 298.5,201.5 Z"/></g>
<g><path style="opacity:0.545" fill="#9a8b25" d="M 296.5,211.5 C 296.279,214.067 295.612,216.401 294.5,218.5C 294.171,215.772 294.837,213.438 296.5,211.5 Z"/></g>
<g><path style="opacity:0.388" fill="#7a6d1f" d="M 294.5,219.5 C 294.405,221.786 293.738,223.786 292.5,225.5C 292.259,223.102 292.926,221.102 294.5,219.5 Z"/></g>
<g><path style="opacity:0.643" fill="#a39327" d="M 192.5,239.5 C 191.581,242.089 189.914,244.089 187.5,245.5C 188.419,242.911 190.086,240.911 192.5,239.5 Z"/></g>
<g><path style="opacity:0.995" fill="#2c9357" d="M 115.5,257.5 C 118.167,257.5 120.833,257.5 123.5,257.5C 126.153,269.676 127.486,282.009 127.5,294.5C 124.167,294.5 120.833,294.5 117.5,294.5C 117.5,291.5 117.5,288.5 117.5,285.5C 113.774,285.177 110.107,285.511 106.5,286.5C 105.422,289.207 104.422,291.874 103.5,294.5C 99.774,294.823 96.1073,294.489 92.5,293.5C 99.1791,280.794 106.846,268.794 115.5,257.5 Z M 115.5,269.5 C 116.687,272.946 117.354,276.613 117.5,280.5C 114.813,280.664 112.146,280.497 109.5,280C 112.409,277.015 114.409,273.515 115.5,269.5 Z"/></g>
<g><path style="opacity:0.997" fill="#2c9256" d="M 140.5,257.5 C 143.247,257.187 145.914,257.52 148.5,258.5C 151.763,265.124 154.93,271.79 158,278.5C 159.667,271.833 161.333,265.167 163,258.5C 166.057,257.549 169.223,257.216 172.5,257.5C 169.644,269.571 166.477,281.571 163,293.5C 160.534,294.777 158.034,294.777 155.5,293.5C 152.318,287.136 149.151,280.802 146,274.5C 144.333,280.833 142.667,287.167 141,293.5C 137.875,294.787 134.709,294.787 131.5,293.5C 135.131,281.644 138.131,269.644 140.5,257.5 Z"/></g>
<g><path style="opacity:0.996" fill="#2c9356" d="M 189.5,257.5 C 192.711,257.012 195.544,257.679 198,259.5C 200.595,271.023 201.762,282.689 201.5,294.5C 198.167,294.5 194.833,294.5 191.5,294.5C 191.5,291.5 191.5,288.5 191.5,285.5C 187.774,285.177 184.107,285.511 180.5,286.5C 179.422,289.207 178.422,291.874 177.5,294.5C 173.774,294.823 170.107,294.489 166.5,293.5C 173.167,280.827 180.833,268.827 189.5,257.5 Z M 189.5,270.5 C 191.175,273.507 191.841,276.84 191.5,280.5C 189.076,280.808 186.743,280.474 184.5,279.5C 186.445,276.607 188.111,273.607 189.5,270.5 Z"/></g>
<g><path style="opacity:0.998" fill="#2c9356" d="M 207.5,257.5 C 217.19,257.168 226.856,257.502 236.5,258.5C 235.754,259.736 235.421,261.07 235.5,262.5C 232.167,262.5 228.833,262.5 225.5,262.5C 223.306,272.942 220.639,283.275 217.5,293.5C 214.167,294.833 210.833,294.833 207.5,293.5C 210.313,283.258 213.313,273.092 216.5,263C 213.118,262.824 209.785,262.324 206.5,261.5C 207.246,260.264 207.579,258.93 207.5,257.5 Z"/></g>
<g><path style="opacity:0.966" fill="#2d9558" d="M 255.5,275.5 C 251.827,277.318 247.827,277.984 243.5,277.5C 243.5,278.5 243.5,279.5 243.5,280.5C 242.973,283.909 242.473,287.242 242,290.5C 246.118,289.202 250.285,289.202 254.5,290.5C 253.754,291.736 253.421,293.07 253.5,294.5C 245.833,294.5 238.167,294.5 230.5,294.5C 233.353,282.438 236.519,270.438 240,258.5C 247.413,257.519 254.913,257.186 262.5,257.5C 262.579,258.93 262.246,260.264 261.5,261.5C 256.73,261.917 252.23,262.917 248,264.5C 247.668,267.506 246.834,270.34 245.5,273C 249.091,273.789 252.591,273.622 256,272.5C 256.74,273.749 256.573,274.749 255.5,275.5 Z"/></g>
<g><path style="opacity:0.973" fill="#2c9457" d="M 267.5,257.5 C 270.833,257.5 274.167,257.5 277.5,257.5C 274.991,267.868 272.325,278.201 269.5,288.5C 273.445,289.491 277.445,289.824 281.5,289.5C 281.5,291.167 281.5,292.833 281.5,294.5C 273.833,294.5 266.167,294.5 258.5,294.5C 261.343,282.127 264.343,269.794 267.5,257.5 Z"/></g>
<g><path style="opacity:0.145" fill="#174e2e" d="M 255.5,275.5 C 255.5,276.5 255.5,277.5 255.5,278.5C 251.173,278.016 247.173,278.682 243.5,280.5C 243.5,279.5 243.5,278.5 243.5,277.5C 247.827,277.984 251.827,277.318 255.5,275.5 Z"/></g>
</svg>
