<?xml version="1.0" encoding="UTF-8"?>
<!DOCTYPE svg PUBLIC "-//W3C//DTD SVG 1.1//EN" "http://www.w3.org/Graphics/SVG/1.1/DTD/svg11.dtd">
<svg xmlns="http://www.w3.org/2000/svg" version="1.1" width="393px" height="382px" style="shape-rendering:geometricPrecision; text-rendering:geometricPrecision; image-rendering:optimizeQuality; fill-rule:evenodd; clip-rule:evenodd" xmlns:xlink="http://www.w3.org/1999/xlink">
<g><path style="opacity:1" fill="#007fb0" d="M 134.5,104.5 C 132.744,105.552 132.077,107.219 132.5,109.5C 126.822,99.813 121.989,89.813 118,79.5C 124.018,87.5475 129.518,95.8809 134.5,104.5 Z"/></g>
<g><path style="opacity:0.998" fill="#0095cf" d="M 293.5,177.5 C 295.72,191.446 296.053,205.446 294.5,219.5C 294.102,223.761 293.102,227.761 291.5,231.5C 288.619,234.13 287.285,237.464 287.5,241.5C 281.24,256.268 271.74,268.602 259,278.5C 258.312,279.332 258.479,279.998 259.5,280.5C 261.911,281.361 263.911,282.694 265.5,284.5C 266.976,286.23 266.642,287.563 264.5,288.5C 262.382,287.054 260.049,286.387 257.5,286.5C 255.45,286.039 253.45,285.372 251.5,284.5C 222.026,302.162 191.026,305.329 158.5,294C 128.807,281.143 109.14,259.31 99.5,228.5C 99.5905,225.848 98.9238,223.515 97.5,221.5C 96.6586,219.621 96.3253,217.621 96.5,215.5C 96.3981,203.817 96.7314,192.15 97.5,180.5C 97.5,180.167 97.5,179.833 97.5,179.5C 98.9238,177.485 99.5905,175.152 99.5,172.5C 101.441,163.32 105.108,154.986 110.5,147.5C 111.906,147.027 112.573,146.027 112.5,144.5C 114.372,139.957 117.372,136.29 121.5,133.5C 124.5,131.167 127.167,128.5 129.5,125.5C 131.506,122.827 133.839,120.494 136.5,118.5C 135.141,115.486 133.808,112.486 132.5,109.5C 132.077,107.219 132.744,105.552 134.5,104.5C 137.492,107.662 140.326,110.995 143,114.5C 183.418,92.7926 222.252,95.2926 259.5,122C 277.098,136.701 288.431,155.201 293.5,177.5 Z M 211.5,111.5 C 212.058,112.79 213.058,113.623 214.5,114C 210.037,115.656 205.704,117.489 201.5,119.5C 198.456,117.989 195.122,117.322 191.5,117.5C 190.5,117.5 189.5,117.5 188.5,117.5C 180.656,116.371 172.656,116.371 164.5,117.5C 164.167,117.5 163.833,117.5 163.5,117.5C 160.598,118.578 157.598,119.244 154.5,119.5C 172.458,110.046 191.458,107.379 211.5,111.5 Z M 218.5,112.5 C 220.565,112.517 222.565,112.85 224.5,113.5C 223.081,114.451 221.415,114.784 219.5,114.5C 219.167,113.833 218.833,113.167 218.5,112.5 Z M 187.5,120.5 C 187.833,120.5 188.167,120.5 188.5,120.5C 192.179,120.724 195.846,121.058 199.5,121.5C 199.918,122.222 200.584,122.722 201.5,123C 199.67,128.855 200.67,134.188 204.5,139C 196.077,143.199 188.41,148.366 181.5,154.5C 181.167,154.5 180.833,154.5 180.5,154.5C 179.542,154.953 178.708,155.619 178,156.5C 173.631,151.963 169.131,147.63 164.5,143.5C 159.868,137.089 154.868,130.922 149.5,125C 154.604,123.424 159.604,121.924 164.5,120.5C 165.5,120.5 166.5,120.5 167.5,120.5C 174.192,119.603 180.859,119.603 187.5,120.5 Z M 157.5,151.5 C 152.476,152.782 147.309,152.782 142,151.5C 140.456,152.838 140.623,154.171 142.5,155.5C 143.079,158.331 144.412,160.664 146.5,162.5C 152.631,163.83 159.131,164.497 166,164.5C 172.5,164.167 179,163.833 185.5,163.5C 185.376,162.893 185.043,162.56 184.5,162.5C 183.064,161.571 181.731,160.405 180.5,159C 181.381,158.292 182.047,157.458 182.5,156.5C 190.444,151.522 198.444,146.522 206.5,141.5C 214.064,149.615 223.397,153.948 234.5,154.5C 234.989,155.995 235.655,157.329 236.5,158.5C 236.5,159.167 236.5,159.833 236.5,160.5C 236.5,161.833 236.5,163.167 236.5,164.5C 237.833,164.5 239.167,164.5 240.5,164.5C 240.737,163.209 240.404,162.209 239.5,161.5C 239.756,159.208 239.423,157.041 238.5,155C 243.172,154.947 247.172,153.447 250.5,150.5C 255.981,153.816 260.314,158.316 263.5,164C 264.944,164.781 266.277,164.614 267.5,163.5C 263.189,157.721 258.523,152.221 253.5,147C 255.032,142.191 254.699,137.524 252.5,133C 253.094,132.536 253.761,132.369 254.5,132.5C 261.078,136.242 266.578,141.242 271,147.5C 286.346,170.399 291.179,195.399 285.5,222.5C 284.388,224.599 283.721,226.933 283.5,229.5C 281.784,233.26 279.784,236.927 277.5,240.5C 267.855,250.987 255.855,256.654 241.5,257.5C 247.728,254.716 253.728,251.383 259.5,247.5C 256.212,245.572 252.879,243.739 249.5,242C 234.978,243.453 223.311,238.619 214.5,227.5C 213.492,225.456 212.492,223.456 211.5,221.5C 211.108,219.821 210.608,218.154 210,216.5C 204.379,212.279 198.879,207.945 193.5,203.5C 193.44,202.957 193.107,202.624 192.5,202.5C 191.186,207.652 191.186,212.652 192.5,217.5C 199.724,224.457 207.391,230.957 215.5,237C 206.344,240.996 197.01,244.496 187.5,247.5C 188.748,249.459 190.415,250.959 192.5,252C 191.906,252.464 191.239,252.631 190.5,252.5C 172.26,246.297 156.093,236.63 142,223.5C 141.333,224.833 141.333,226.167 142,227.5C 155.141,240.456 170.641,249.456 188.5,254.5C 192.953,256.288 197.62,257.788 202.5,259C 206.562,262.029 210.895,264.529 215.5,266.5C 215.953,267.458 216.619,268.292 217.5,269C 215.035,272.107 212.702,275.274 210.5,278.5C 208.967,280.355 207.3,282.188 205.5,284C 203.203,284.018 200.869,283.851 198.5,283.5C 171.398,278.944 147.398,267.944 126.5,250.5C 125.833,249.167 124.833,248.167 123.5,247.5C 123.357,245.738 123.691,244.071 124.5,242.5C 122.394,241.919 120.394,241.586 118.5,241.5C 116.821,241.285 115.821,241.952 115.5,243.5C 112.048,238.26 109.382,232.594 107.5,226.5C 107.279,223.933 106.612,221.599 105.5,219.5C 101.688,197.037 105.022,175.704 115.5,155.5C 116.167,155.5 116.5,155.833 116.5,156.5C 116.5,158.833 116.5,161.167 116.5,163.5C 117.568,164.434 118.901,164.768 120.5,164.5C 120.5,162.167 120.5,159.833 120.5,157.5C 120.534,152.562 121.701,147.896 124,143.5C 128.458,136.874 134.291,131.874 141.5,128.5C 146.597,136.37 151.93,144.037 157.5,151.5 Z M 204.5,123.5 C 211.192,124.842 217.525,127.175 223.5,130.5C 218.267,132.7 213.101,135.033 208,137.5C 204.316,133.431 203.149,128.764 204.5,123.5 Z M 223.5,119.5 C 224.209,118.596 225.209,118.263 226.5,118.5C 228.746,119.455 231.079,120.122 233.5,120.5C 236.798,122.485 240.131,124.485 243.5,126.5C 242.791,127.404 241.791,127.737 240.5,127.5C 237.807,127.572 235.14,127.905 232.5,128.5C 230.886,128.197 229.552,127.53 228.5,126.5C 228.573,124.973 227.906,123.973 226.5,123.5C 226.262,121.596 225.262,120.262 223.5,119.5 Z M 223.5,123.5 C 223.557,124.609 223.89,125.609 224.5,126.5C 219.107,124.702 213.774,122.702 208.5,120.5C 210.898,118.896 213.565,117.896 216.5,117.5C 219.466,118.802 221.799,120.802 223.5,123.5 Z M 250.5,144.5 C 245.297,139.811 239.63,135.644 233.5,132C 234.793,131.51 236.127,131.343 237.5,131.5C 248.293,129.435 252.627,133.768 250.5,144.5 Z M 229.5,134.5 C 229.402,136.553 230.069,138.22 231.5,139.5C 232.292,143.211 233.292,146.878 234.5,150.5C 224.907,150.381 216.574,146.881 209.5,140C 215.179,137.44 221.012,135.273 227,133.5C 227.902,133.743 228.735,134.077 229.5,134.5 Z M 233.5,135.5 C 239.056,138.781 244.056,142.781 248.5,147.5C 245.479,150.398 241.813,151.731 237.5,151.5C 236.483,146.097 235.149,140.764 233.5,135.5 Z M 115.5,243.5 C 119.487,245.305 120.987,248.305 120,252.5C 118.239,249.589 116.739,246.589 115.5,243.5 Z M 272.5,250.5 C 266.249,259.587 258.749,267.587 250,274.5C 244.038,271.024 238.538,267.024 233.5,262.5C 237.337,262.069 241.003,261.402 244.5,260.5C 245.167,260.5 245.833,260.5 246.5,260.5C 255.841,258.826 264.508,255.492 272.5,250.5 Z M 125.5,252.5 C 144.408,270.12 166.742,281.12 192.5,285.5C 201.665,287.088 201.665,288.754 192.5,290.5C 188.542,291.45 184.542,291.45 180.5,290.5C 163.547,287.521 148.547,280.521 135.5,269.5C 135.027,268.094 134.027,267.427 132.5,267.5C 129.516,264.209 127.016,260.542 125,256.5C 124.235,254.934 124.402,253.601 125.5,252.5 Z M 222.5,270.5 C 228.494,274.163 234.827,277.33 241.5,280C 234.672,282.332 227.672,283.832 220.5,284.5C 216.629,284.815 212.962,284.482 209.5,283.5C 210.833,282.833 211.833,281.833 212.5,280.5C 215.366,278.454 217.533,275.787 219,272.5C 219.816,271.177 220.983,270.511 222.5,270.5 Z M 209.5,287.5 C 212.167,288.167 214.833,288.833 217.5,289.5C 211.856,290.522 206.189,291.022 200.5,291C 203.255,289.047 206.255,287.88 209.5,287.5 Z"/></g>
<g><path style="opacity:1" fill="#0075a2" d="M 224.5,113.5 C 225.791,113.263 226.791,113.596 227.5,114.5C 225.523,115.507 225.857,115.507 228.5,114.5C 229.492,114.328 230.158,114.662 230.5,115.5C 229.833,115.5 229.5,115.833 229.5,116.5C 228.127,116.343 226.793,116.51 225.5,117C 226.056,117.383 226.389,117.883 226.5,118.5C 225.209,118.263 224.209,118.596 223.5,119.5C 222.168,117.862 220.834,116.196 219.5,114.5C 221.415,114.784 223.081,114.451 224.5,113.5 Z"/></g>
<g><path style="opacity:1" fill="#00a0de" d="M 188.5,117.5 C 189.5,117.5 190.5,117.5 191.5,117.5C 192.609,118.29 193.942,118.79 195.5,119C 192.964,119.186 190.631,119.686 188.5,120.5C 188.167,120.5 187.833,120.5 187.5,120.5C 187.082,119.778 186.416,119.278 185.5,119C 181.5,118.667 177.5,118.333 173.5,118C 178.489,117.501 183.489,117.334 188.5,117.5 Z"/></g>
<g><path style="opacity:0.467" fill="#0077a5" d="M 188.5,117.5 C 183.489,117.334 178.489,117.501 173.5,118C 177.5,118.333 181.5,118.667 185.5,119C 186.416,119.278 187.082,119.778 187.5,120.5C 180.859,119.603 174.192,119.603 167.5,120.5C 168.609,119.71 169.942,119.21 171.5,119C 168.964,118.814 166.631,118.314 164.5,117.5C 172.656,116.371 180.656,116.371 188.5,117.5 Z"/></g>
<g><path style="opacity:0.898" fill="#009cd8" d="M 163.5,117.5 C 163.833,117.5 164.167,117.5 164.5,117.5C 166.631,118.314 168.964,118.814 171.5,119C 169.942,119.21 168.609,119.71 167.5,120.5C 166.5,120.5 165.5,120.5 164.5,120.5C 163.127,120.657 161.793,120.49 160.5,120C 161.942,119.623 162.942,118.79 163.5,117.5 Z"/></g>
<g><path style="opacity:0.571" fill="#00709b" d="M 191.5,117.5 C 195.122,117.322 198.456,117.989 201.5,119.5C 199.801,119.34 198.134,119.506 196.5,120C 197.737,120.232 198.737,120.732 199.5,121.5C 195.846,121.058 192.179,120.724 188.5,120.5C 190.631,119.686 192.964,119.186 195.5,119C 193.942,118.79 192.609,118.29 191.5,117.5 Z"/></g>
<g><path style="opacity:0.588" fill="#00648a" d="M 129.5,125.5 C 127.167,128.5 124.5,131.167 121.5,133.5C 123.167,129.833 125.833,127.167 129.5,125.5 Z"/></g>
<g><path style="opacity:0.98" fill="#0087bb" d="M 218.5,111.5 C 215.833,111.833 215.833,112.167 218.5,112.5C 218.833,113.167 219.167,113.833 219.5,114.5C 220.834,116.196 222.168,117.862 223.5,119.5C 225.262,120.262 226.262,121.596 226.5,123.5C 226.427,125.027 227.094,126.027 228.5,126.5C 229.552,127.53 230.886,128.197 232.5,128.5C 235.14,127.905 237.807,127.572 240.5,127.5C 241.708,128.782 243.042,128.782 244.5,127.5C 244.376,126.893 244.043,126.56 243.5,126.5C 240.131,124.485 236.798,122.485 233.5,120.5C 234.043,120.44 234.376,120.107 234.5,119.5C 233.757,118.818 233.091,118.151 232.5,117.5C 233.167,117.5 233.5,117.167 233.5,116.5C 234.995,116.989 236.329,117.655 237.5,118.5C 239.153,118.66 240.486,119.326 241.5,120.5C 242.71,120.932 243.71,121.599 244.5,122.5C 243.167,122.833 243.167,123.167 244.5,123.5C 244.5,124.167 244.833,124.5 245.5,124.5C 245.5,125.167 245.833,125.5 246.5,125.5C 246.511,127.017 247.177,128.184 248.5,129C 245.167,129.333 241.833,129.667 238.5,130C 237.944,130.383 237.611,130.883 237.5,131.5C 236.127,131.343 234.793,131.51 233.5,132C 239.63,135.644 245.297,139.811 250.5,144.5C 251.641,146.451 251.641,148.451 250.5,150.5C 247.172,153.447 243.172,154.947 238.5,155C 239.423,157.041 239.756,159.208 239.5,161.5C 239.631,162.376 239.298,163.043 238.5,163.5C 237.824,162.398 237.158,161.398 236.5,160.5C 236.5,159.833 236.5,159.167 236.5,158.5C 236.843,156.517 236.176,155.183 234.5,154.5C 223.397,153.948 214.064,149.615 206.5,141.5C 198.444,146.522 190.444,151.522 182.5,156.5C 184.031,155.075 183.698,154.409 181.5,154.5C 188.41,148.366 196.077,143.199 204.5,139C 200.67,134.188 199.67,128.855 201.5,123C 200.584,122.722 199.918,122.222 199.5,121.5C 198.737,120.732 197.737,120.232 196.5,120C 198.134,119.506 199.801,119.34 201.5,119.5C 205.704,117.489 210.037,115.656 214.5,114C 213.058,113.623 212.058,112.79 211.5,111.5C 214.005,110.583 216.338,110.583 218.5,111.5 Z M 204.5,123.5 C 203.149,128.764 204.316,133.431 208,137.5C 213.101,135.033 218.267,132.7 223.5,130.5C 217.525,127.175 211.192,124.842 204.5,123.5 Z M 223.5,119.5 C 224.209,118.596 225.209,118.263 226.5,118.5C 228.746,119.455 231.079,120.122 233.5,120.5C 236.798,122.485 240.131,124.485 243.5,126.5C 242.791,127.404 241.791,127.737 240.5,127.5C 237.807,127.572 235.14,127.905 232.5,128.5C 230.886,128.197 229.552,127.53 228.5,126.5C 228.573,124.973 227.906,123.973 226.5,123.5C 226.262,121.596 225.262,120.262 223.5,119.5 Z M 223.5,123.5 C 223.557,124.609 223.89,125.609 224.5,126.5C 219.107,124.702 213.774,122.702 208.5,120.5C 210.898,118.896 213.565,117.896 216.5,117.5C 219.466,118.802 221.799,120.802 223.5,123.5 Z M 229.5,134.5 C 229.402,136.553 230.069,138.22 231.5,139.5C 232.292,143.211 233.292,146.878 234.5,150.5C 224.907,150.381 216.574,146.881 209.5,140C 215.179,137.44 221.012,135.273 227,133.5C 227.902,133.743 228.735,134.077 229.5,134.5 Z M 233.5,135.5 C 235.149,140.764 236.483,146.097 237.5,151.5C 241.813,151.731 245.479,150.398 248.5,147.5C 244.056,142.781 239.056,138.781 233.5,135.5 Z"/></g>
<g><path style="opacity:0.329" fill="#004762" d="M 243.5,126.5 C 244.043,126.56 244.376,126.893 244.5,127.5C 243.042,128.782 241.708,128.782 240.5,127.5C 241.791,127.737 242.791,127.404 243.5,126.5 Z"/></g>
<g><path style="opacity:0.306" fill="#005474" d="M 226.5,123.5 C 227.906,123.973 228.573,124.973 228.5,126.5C 227.094,126.027 226.427,125.027 226.5,123.5 Z"/></g>
<g><path style="opacity:0.133" fill="#004d6a" d="M 223.5,123.5 C 224.906,123.973 225.573,124.973 225.5,126.5C 225.167,126.5 224.833,126.5 224.5,126.5C 223.89,125.609 223.557,124.609 223.5,123.5 Z"/></g>
<g><path style="opacity:0.971" fill="#007eaf" d="M 246.5,125.5 C 246.833,125.5 247.167,125.5 247.5,125.5C 247.5,126.167 247.833,126.5 248.5,126.5C 248.842,127.338 249.508,127.672 250.5,127.5C 251.609,128.29 252.942,128.79 254.5,129C 253.167,129.333 251.833,129.667 250.5,130C 252.066,130.608 253.4,131.442 254.5,132.5C 253.761,132.369 253.094,132.536 252.5,133C 254.699,137.524 255.032,142.191 253.5,147C 258.523,152.221 263.189,157.721 267.5,163.5C 266.277,164.614 264.944,164.781 263.5,164C 260.314,158.316 255.981,153.816 250.5,150.5C 251.641,148.451 251.641,146.451 250.5,144.5C 252.627,133.768 248.293,129.435 237.5,131.5C 237.611,130.883 237.944,130.383 238.5,130C 241.833,129.667 245.167,129.333 248.5,129C 247.177,128.184 246.511,127.017 246.5,125.5 Z"/></g>
<g><path style="opacity:0.376" fill="#005d81" d="M 229.5,134.5 C 230.931,135.78 231.598,137.447 231.5,139.5C 230.069,138.22 229.402,136.553 229.5,134.5 Z"/></g>
<g><path style="opacity:0.776" fill="#00658c" d="M 164.5,143.5 C 169.131,147.63 173.631,151.963 178,156.5C 178.708,155.619 179.542,154.953 180.5,154.5C 180.278,157.076 178.945,157.91 176.5,157C 171.898,152.906 167.898,148.406 164.5,143.5 Z"/></g>
<g><path style="opacity:0.275" fill="#004f6e" d="M 112.5,144.5 C 112.573,146.027 111.906,147.027 110.5,147.5C 110.427,145.973 111.094,144.973 112.5,144.5 Z"/></g>
<g><path style="opacity:0.406" fill="#006085" d="M 157.5,151.5 C 158.043,151.56 158.376,151.893 158.5,152.5C 152.771,152.866 147.437,153.866 142.5,155.5C 140.623,154.171 140.456,152.838 142,151.5C 147.309,152.782 152.476,152.782 157.5,151.5 Z"/></g>
<g><path style="opacity:0.075" fill="#003e56" d="M 116.5,153.5 C 116.5,154.167 116.833,154.5 117.5,154.5C 117.672,155.492 117.338,156.158 116.5,156.5C 116.5,155.833 116.167,155.5 115.5,155.5C 115.328,154.508 115.662,153.842 116.5,153.5 Z"/></g>
<g><path style="opacity:0.412" fill="#00597b" d="M 234.5,154.5 C 236.176,155.183 236.843,156.517 236.5,158.5C 235.655,157.329 234.989,155.995 234.5,154.5 Z"/></g>
<g><path style="opacity:0.004" fill="#003950" d="M 120.5,157.5 C 120.5,159.833 120.5,162.167 120.5,164.5C 118.901,164.768 117.568,164.434 116.5,163.5C 117.5,163.5 118.5,163.5 119.5,163.5C 119.205,161.265 119.539,159.265 120.5,157.5 Z"/></g>
<g><path style="opacity:0.361" fill="#005374" d="M 146.5,162.5 C 159.265,163.821 171.931,163.821 184.5,162.5C 185.043,162.56 185.376,162.893 185.5,163.5C 179,163.833 172.5,164.167 166,164.5C 159.131,164.497 152.631,163.83 146.5,162.5 Z"/></g>
<g><path style="opacity:0.016" fill="#004662" d="M 236.5,160.5 C 237.158,161.398 237.824,162.398 238.5,163.5C 239.298,163.043 239.631,162.376 239.5,161.5C 240.404,162.209 240.737,163.209 240.5,164.5C 239.167,164.5 237.833,164.5 236.5,164.5C 236.5,163.167 236.5,161.833 236.5,160.5 Z"/></g>
<g><path style="opacity:0.106" fill="#0077a5" d="M 203.5,188.5 C 203.5,182.5 203.5,176.5 203.5,170.5C 184.833,170.5 166.167,170.5 147.5,170.5C 147.5,176.5 147.5,182.5 147.5,188.5C 146.51,182.355 146.177,176.022 146.5,169.5C 165.833,169.5 185.167,169.5 204.5,169.5C 204.823,176.022 204.49,182.355 203.5,188.5 Z"/></g>
<g><path style="opacity:1" fill="#009cd8" d="M 135.5,235.5 C 128.833,236.833 122.167,236.833 115.5,235.5C 115.5,214.167 115.5,192.833 115.5,171.5C 122.167,171.5 128.833,171.5 135.5,171.5C 135.5,192.833 135.5,214.167 135.5,235.5 Z"/></g>
<g><path style="opacity:1" fill="#0099d4" d="M 203.5,188.5 C 197.833,188.5 192.167,188.5 186.5,188.5C 186.833,204.181 186.499,219.848 185.5,235.5C 178.637,236.819 171.803,236.819 165,235.5C 164.5,219.837 164.333,204.17 164.5,188.5C 158.833,188.5 153.167,188.5 147.5,188.5C 147.5,182.5 147.5,176.5 147.5,170.5C 166.167,170.5 184.833,170.5 203.5,170.5C 203.5,176.5 203.5,182.5 203.5,188.5 Z"/></g>
<g><path style="opacity:1" fill="#009ad5" d="M 235.5,170.5 C 236.071,184.381 236.905,198.381 238,212.5C 240.897,217.155 245.063,218.655 250.5,217C 252.402,215.27 254.069,213.437 255.5,211.5C 256.29,210.391 256.79,209.058 257,207.5C 257.5,195.171 257.667,182.838 257.5,170.5C 264.167,170.5 270.833,170.5 277.5,170.5C 278.806,184.039 278.806,197.706 277.5,211.5C 276.076,213.515 275.41,215.848 275.5,218.5C 273.519,225.986 268.852,231.153 261.5,234C 251.929,236.869 242.263,237.202 232.5,235C 228.589,233.556 225.256,231.389 222.5,228.5C 222.573,226.973 221.906,225.973 220.5,225.5C 220.759,223.011 219.759,221.344 217.5,220.5C 216.596,219.791 216.263,218.791 216.5,217.5C 215.658,201.849 215.325,186.182 215.5,170.5C 222.167,170.5 228.833,170.5 235.5,170.5 Z"/></g>
<g><path style="opacity:0.455" fill="#006b94" d="M 135.5,235.5 C 135.5,214.167 135.5,192.833 135.5,171.5C 128.833,171.5 122.167,171.5 115.5,171.5C 115.5,192.833 115.5,214.167 115.5,235.5C 114.337,214.004 114.171,192.337 115,170.5C 122,169.167 129,169.167 136,170.5C 136.829,192.337 136.663,214.004 135.5,235.5 Z"/></g>
<g><path style="opacity:0.584" fill="#006f9a" d="M 235.5,170.5 C 228.833,170.5 222.167,170.5 215.5,170.5C 215.325,186.182 215.658,201.849 216.5,217.5C 215.698,216.048 215.198,214.382 215,212.5C 214.5,198.171 214.333,183.837 214.5,169.5C 221.687,169.175 228.687,169.509 235.5,170.5 Z"/></g>
<g><path style="opacity:0.588" fill="#006e9a" d="M 277.5,170.5 C 270.833,170.5 264.167,170.5 257.5,170.5C 257.667,182.838 257.5,195.171 257,207.5C 256.79,209.058 256.29,210.391 255.5,211.5C 256.388,197.522 256.722,183.522 256.5,169.5C 263.687,169.175 270.687,169.509 277.5,170.5 Z"/></g>
<g><path style="opacity:0.118" fill="#005778" d="M 99.5,172.5 C 99.5905,175.152 98.9238,177.485 97.5,179.5C 97.4095,176.848 98.0762,174.515 99.5,172.5 Z"/></g>
<g><path style="opacity:0.165" fill="#00668d" d="M 293.5,177.5 C 295.911,184.84 296.911,192.506 296.5,200.5C 296.68,207.072 296.014,213.405 294.5,219.5C 296.053,205.446 295.72,191.446 293.5,177.5 Z"/></g>
<g><path style="opacity:0.745" fill="#007bab" d="M 97.5,180.5 C 96.7314,192.15 96.3981,203.817 96.5,215.5C 95.834,210.678 95.5007,205.678 95.5,200.5C 95.2756,193.589 95.9423,186.922 97.5,180.5 Z"/></g>
<g><path style="opacity:0.232" fill="#00709c" d="M 193.5,203.5 C 192.514,207.97 192.181,212.637 192.5,217.5C 191.186,212.652 191.186,207.652 192.5,202.5C 193.107,202.624 193.44,202.957 193.5,203.5 Z"/></g>
<g><path style="opacity:0.525" fill="#006287" d="M 277.5,211.5 C 277.59,214.152 276.924,216.485 275.5,218.5C 275.41,215.848 276.076,213.515 277.5,211.5 Z"/></g>
<g><path style="opacity:1" fill="#006d97" d="M 217.5,220.5 C 219.759,221.344 220.759,223.011 220.5,225.5C 218.75,224.341 217.75,222.674 217.5,220.5 Z"/></g>
<g><path style="opacity:0.451" fill="#015c7f" d="M 105.5,219.5 C 106.612,221.599 107.279,223.933 107.5,226.5C 105.837,224.562 105.171,222.228 105.5,219.5 Z"/></g>
<g><path style="opacity:0.922" fill="#00658d" d="M 211.5,221.5 C 212.492,223.456 213.492,225.456 214.5,227.5C 212.025,226.313 211.025,224.313 211.5,221.5 Z"/></g>
<g><path style="opacity:0.765" fill="#00658c" d="M 285.5,222.5 C 285.829,225.228 285.163,227.562 283.5,229.5C 283.721,226.933 284.388,224.599 285.5,222.5 Z"/></g>
<g><path style="opacity:0.031" fill="#00587a" d="M 97.5,221.5 C 98.9238,223.515 99.5905,225.848 99.5,228.5C 98.0762,226.485 97.4095,224.152 97.5,221.5 Z"/></g>
<g><path style="opacity:0.051" fill="#005577" d="M 220.5,225.5 C 221.906,225.973 222.573,226.973 222.5,228.5C 221.094,228.027 220.427,227.027 220.5,225.5 Z"/></g>
<g><path style="opacity:0.941" fill="#00739f" d="M 291.5,231.5 C 290.737,235.137 289.403,238.47 287.5,241.5C 287.285,237.464 288.619,234.13 291.5,231.5 Z"/></g>
<g><path style="opacity:0.718" fill="#00678e" d="M 118.5,241.5 C 120.394,241.586 122.394,241.919 124.5,242.5C 123.691,244.071 123.357,245.738 123.5,247.5C 122.698,246.048 122.198,244.382 122,242.5C 120.264,245.064 119.098,244.731 118.5,241.5 Z"/></g>
<g><path style="opacity:1" fill="#0084b8" d="M 190.5,252.5 C 189.127,252.343 187.793,252.51 186.5,253C 187.416,253.278 188.082,253.778 188.5,254.5C 170.641,249.456 155.141,240.456 142,227.5C 141.333,226.167 141.333,224.833 142,223.5C 156.093,236.63 172.26,246.297 190.5,252.5 Z"/></g>
<g><path style="opacity:0.927" fill="#007fb1" d="M 277.5,240.5 C 276.457,243.056 274.79,245.223 272.5,247C 273.996,247.507 275.163,247.007 276,245.5C 275.888,247.797 274.722,249.464 272.5,250.5C 264.508,255.492 255.841,258.826 246.5,260.5C 246.918,259.778 247.584,259.278 248.5,259C 247.5,258.833 246.5,258.667 245.5,258.5C 241.346,259.459 237.346,259.625 233.5,259C 235.025,257.991 236.692,257.491 238.5,257.5C 239.5,258.833 240.5,258.833 241.5,257.5C 255.855,256.654 267.855,250.987 277.5,240.5 Z"/></g>
<g><path style="opacity:0.361" fill="#00658d" d="M 244.5,260.5 C 241.003,261.402 237.337,262.069 233.5,262.5C 233.918,261.778 234.584,261.278 235.5,261C 238.482,260.502 241.482,260.335 244.5,260.5 Z"/></g>
<g><path style="opacity:0.031" fill="#005576" d="M 132.5,267.5 C 134.027,267.427 135.027,268.094 135.5,269.5C 133.973,269.573 132.973,268.906 132.5,267.5 Z"/></g>
<g><path style="opacity:1" fill="#0085b9" d="M 126.5,250.5 C 147.398,267.944 171.398,278.944 198.5,283.5C 195.358,283.849 192.025,284.016 188.5,284C 190.058,284.21 191.391,284.71 192.5,285.5C 166.742,281.12 144.408,270.12 125.5,252.5C 125.328,251.508 125.662,250.842 126.5,250.5 Z"/></g>
<g><path style="opacity:1" fill="#0075a2" d="M 215.5,266.5 C 218.1,267.468 220.434,268.801 222.5,270.5C 220.983,270.511 219.816,271.177 219,272.5C 217.533,275.787 215.366,278.454 212.5,280.5C 212.5,279.167 211.833,278.5 210.5,278.5C 212.702,275.274 215.035,272.107 217.5,269C 216.619,268.292 215.953,267.458 215.5,266.5 Z"/></g>
<g><path style="opacity:0.22" fill="#00445e" d="M 209.5,283.5 C 212.962,284.482 216.629,284.815 220.5,284.5C 216.649,285.809 212.649,285.809 208.5,284.5C 208.624,283.893 208.957,283.56 209.5,283.5 Z"/></g>
<g><path style="opacity:0.067" fill="#003144" d="M 209.5,287.5 C 212.5,287.5 215.5,287.5 218.5,287.5C 218.672,288.492 218.338,289.158 217.5,289.5C 214.833,288.833 212.167,288.167 209.5,287.5 Z"/></g>
<g><path style="opacity:0.956" fill="#0086ba" d="M 265.5,284.5 C 274.456,288.471 283.123,292.804 291.5,297.5C 291.5,298.167 291.5,298.833 291.5,299.5C 279.94,295.539 268.607,291.206 257.5,286.5C 260.049,286.387 262.382,287.054 264.5,288.5C 266.642,287.563 266.976,286.23 265.5,284.5 Z"/></g>
<g><path style="opacity:0.847" fill="#00709c" d="M 180.5,290.5 C 184.542,291.45 188.542,291.45 192.5,290.5C 191.306,291.777 189.64,292.444 187.5,292.5C 184.795,292.684 182.462,292.017 180.5,290.5 Z"/></g>
<g><path style="opacity:0.139" fill="#004763" d="M 291.5,297.5 C 297.964,299.927 297.964,300.594 291.5,299.5C 291.5,298.833 291.5,298.167 291.5,297.5 Z"/></g>
</svg>
