<?xml version="1.0" standalone="no"?>
<!DOCTYPE svg PUBLIC "-//W3C//DTD SVG 20010904//EN"
 "http://www.w3.org/TR/2001/REC-SVG-20010904/DTD/svg10.dtd">
<svg version="1.0" xmlns="http://www.w3.org/2000/svg"
 width="393.000000pt" height="382.000000pt" viewBox="0 0 393.000000 382.000000"
 preserveAspectRatio="xMidYMid meet">

<g transform="translate(0.000000,382.000000) scale(0.100000,-0.100000)"
fill="#000000" stroke="none">
<path d="M1121 2677 c-26 -55 -27 -107 -1 -157 21 -41 27 -45 47 -32 10 6 8
17 -7 47 -25 49 -25 71 0 120 15 29 17 42 9 52 -18 21 -26 16 -48 -30z"/>
<path d="M1322 2707 c-9 -10 -7 -23 8 -52 24 -47 25 -80 5 -119 -19 -36 -19
-42 1 -50 11 -4 20 6 34 37 23 50 25 93 6 139 -20 46 -40 63 -54 45z"/>
<path d="M2105 2611 c-133 -68 -297 -202 -385 -314 l-35 -45 -126 -7 c-70 -4
-160 -13 -200 -20 -41 -7 -77 -11 -81 -8 -12 7 -9 332 3 354 13 25 3 56 -20
64 -45 14 -74 -29 -47 -70 13 -19 14 -50 9 -194 l-6 -170 -91 -21 c-87 -20
-292 -82 -386 -115 -75 -27 -220 -106 -220 -120 0 -29 151 -146 282 -218 177
-97 263 -136 361 -163 60 -17 97 -32 97 -41 0 -7 -9 -36 -20 -65 -27 -70 -59
-208 -67 -283 l-6 -60 94 96 c109 111 159 156 249 225 61 48 67 50 105 42 22
-4 96 -7 165 -6 l125 1 110 -68 c132 -82 293 -164 401 -204 43 -16 92 -34 108
-40 20 -8 -4 22 -89 111 -127 133 -210 234 -198 241 5 2 31 10 60 17 43 11 57
11 80 1 49 -23 245 -82 251 -76 2 2 -2 20 -8 42 -6 21 -10 56 -8 77 4 54 35
62 112 31 49 -20 57 -21 68 -8 15 18 128 96 132 91 2 -1 19 -34 38 -73 68
-136 153 -238 277 -333 45 -34 83 -62 85 -62 3 0 -7 26 -21 58 -14 31 -38 108
-54 171 -25 96 -29 133 -29 245 0 172 25 267 138 526 28 63 49 116 47 118 -4
4 -98 -53 -165 -101 -83 -59 -184 -162 -251 -254 l-59 -81 -48 26 c-56 31 -62
38 -62 76 l0 29 -74 -5 c-42 -3 -82 0 -93 5 -46 27 -297 117 -450 162 -20 6
-53 132 -53 205 0 37 7 107 15 155 9 48 14 89 13 90 -2 1 -35 -14 -73 -34z
m-5 -83 c-1 -18 -29 -88 -29 -75 -1 17 -3 17 -30 -2 -51 -37 -181 -163 -181
-176 0 -16 -27 -23 -63 -15 -28 5 -27 6 65 96 94 92 239 197 238 172z m-220
-348 c172 -13 307 -42 483 -101 199 -67 677 -275 694 -302 11 -18 -7 -15 -102
19 -132 46 -338 107 -505 149 -168 42 -230 51 -230 36 0 -7 5 -9 10 -6 6 3 10
1 10 -5 0 -8 -7 -9 -17 -5 -10 4 -94 11 -188 16 -93 5 -181 11 -195 13 -14 3
-30 5 -37 5 -17 1 -44 31 -38 42 4 5 -15 8 -42 8 -26 -1 -40 -3 -30 -6 15 -4
17 -20 17 -164 0 -132 2 -159 14 -159 8 0 17 4 20 9 11 16 131 58 187 65 l56
7 18 -53 c23 -72 110 -200 225 -333 l95 -109 -90 48 c-115 62 -323 195 -400
256 -86 67 -100 73 -119 54 -25 -24 -19 -49 19 -83 19 -17 35 -33 35 -35 0 -9
-187 4 -300 20 -161 23 -333 68 -434 114 -44 20 -47 24 -30 33 10 6 79 13 153
15 l135 5 -50 25 c-65 33 -186 42 -266 18 -70 -20 -89 -20 -114 0 -10 8 -13
12 -6 9 10 -5 13 -2 10 11 -2 13 -29 28 -87 50 -75 28 -81 32 -55 37 16 3 67
-1 114 -8 47 -8 151 -19 232 -25 106 -7 168 -17 224 -34 l76 -25 -4 70 c-2 38
-9 74 -16 81 -8 8 -39 11 -92 9 -46 -1 -80 2 -80 7 0 5 -10 12 -22 15 -19 5
-20 8 -7 23 13 16 10 17 -41 10 -66 -9 -204 -40 -280 -64 -61 -19 -201 -23
-207 -6 -4 12 156 81 272 117 219 68 474 116 670 127 77 4 151 8 165 8 14 1
81 -3 150 -8z m1388 -27 c-12 -21 -36 -54 -54 -73 -53 -58 -184 -230 -184
-243 0 -6 -10 -1 -22 11 -22 22 -22 22 -3 54 50 88 243 288 277 288 4 0 -2
-17 -14 -37z m-57 -120 c-12 -20 -14 -14 -5 12 4 9 9 14 11 11 3 -2 0 -13 -6
-23z m-2183 -99 c-11 -11 -23 -14 -35 -9 -17 7 -17 8 2 15 11 5 27 9 35 9 12
1 11 -2 -2 -15z m-143 -25 c22 -11 32 -17 22 -14 -10 3 -24 5 -31 5 -7 0 -21
7 -32 15 -27 20 -7 17 41 -6z m1841 -168 c-4 -5 -25 -12 -47 -16 -28 -5 -43
-13 -46 -25 -3 -13 -25 -23 -71 -35 -37 -10 -87 -23 -112 -31 -53 -16 -236
-54 -259 -54 -23 0 -95 112 -78 121 7 4 104 12 217 19 113 7 232 16 265 20 90
11 137 11 131 1z"/>
<path d="M1514 1865 c-9 -193 -5 -214 30 -160 24 36 20 338 -5 343 -14 2 -17
-22 -25 -183z"/>
<path d="M1610 1883 c0 -93 -3 -178 -6 -190 -4 -15 -2 -23 6 -23 6 0 20 10 31
23 16 19 18 41 19 190 l0 167 -25 0 -25 0 0 -167z"/>
<path d="M1420 1903 c0 -76 -4 -154 -10 -172 -13 -48 -4 -52 31 -13 l30 33 -3
142 c-3 139 -4 142 -25 145 -23 3 -23 3 -23 -135z"/>
<path d="M2088 2013 c6 -2 18 -2 25 0 6 3 1 5 -13 5 -14 0 -19 -2 -12 -5z"/>
<path d="M2188 1993 c7 -3 16 -2 19 1 4 3 -2 6 -13 5 -11 0 -14 -3 -6 -6z"/>
</g>
</svg>
